<?xml version="1.0" encoding="UTF-8" standalone="no"?>
<!DOCTYPE svg PUBLIC "-//W3C//DTD SVG 1.1//EN" "http://www.w3.org/Graphics/SVG/1.1/DTD/svg11.dtd">
<svg width="100%" height="100%" viewBox="0 0 32 32" version="1.1" xmlns="http://www.w3.org/2000/svg" xmlns:xlink="http://www.w3.org/1999/xlink" xml:space="preserve" style="fill-rule:evenodd;clip-rule:evenodd;stroke-linejoin:round;stroke-miterlimit:1.41421;">
<rect id="zgadzam-się" x="0" y="0" width="32" height="32" style="fill:none;"/>
<path d="M12.799,13.567l6.217,-7.589c0,0 1.989,-0.978 2.137,0.796c0.126,1.508 -2.269,5.597 -1.773,6.697l5.38,0c3.691,2.344 -1.731,12.82 -4.889,12.82l-6.646,0c-0.543,0 -0.983,-0.44 -0.983,-0.983l0,-10.855c0,-0.39 0.228,-0.727 0.557,-0.886Z" style="fill:#999;"/>
<path d="M11.09,14.843c0,-0.702 -0.57,-1.272 -1.272,-1.272l-2.546,0c-0.702,0 -1.272,0.57 -1.272,1.272l0,10.175c0,0.703 0.57,1.273 1.272,1.273l2.546,0c0.702,0 1.272,-0.57 1.272,-1.273l0,-10.175Z" style="fill:#999;"/>
</svg>